<?xml version="1.0" standalone="no"?><!DOCTYPE svg PUBLIC "-//W3C//DTD SVG 1.1//EN" "http://www.w3.org/Graphics/SVG/1.1/DTD/svg11.dtd"><svg t="1645068879847" class="icon" viewBox="0 0 1024 1024" version="1.1" xmlns="http://www.w3.org/2000/svg" p-id="9316" xmlns:xlink="http://www.w3.org/1999/xlink" width="200" height="200"><defs><style type="text/css"></style></defs><path d="M512 512m-512 0a512 512 0 1 0 1024 0 512 512 0 1 0-1024 0Z" fill="#FFD7B3" p-id="9317"></path><path d="M930.909091 512c0-34.676364-53.76-63.069091-242.269091-64.930909l-202.007273-220.392727a43.752727 43.752727 0 0 0-16.058182-11.170909L398.429091 186.181818a10.938182 10.938182 0 0 0-13.730909 15.127273l135.214545 249.018182a2085.934545 2085.934545 0 0 0-243.665454 26.763636l-61.44-109.614545a15.36 15.36 0 0 0-28.625455 7.447272v274.152728a15.36 15.36 0 0 0 28.625455 7.447272l61.44-109.614545a2085.934545 2085.934545 0 0 0 243.665454 25.832727l-135.214545 249.018182a10.938182 10.938182 0 0 0 13.730909 15.127273l72.145454-28.625455a43.752727 43.752727 0 0 0 16.058182-11.170909l202.007273-220.392727C877.149091 575.069091 930.909091 546.676364 930.909091 512z" fill="#FF9357" p-id="9318"></path></svg>